<?xml version="1.0" standalone="no"?>
<!DOCTYPE svg PUBLIC "-//W3C//DTD SVG 20010904//EN"
 "http://www.w3.org/TR/2001/REC-SVG-20010904/DTD/svg10.dtd">
<svg version="1.0" xmlns="http://www.w3.org/2000/svg"
 width="436.000000pt" height="436.000000pt" viewBox="0 0 436.000000 436.000000"
 preserveAspectRatio="xMidYMid meet">
<metadata>
Created by potrace 1.11, written by Peter Selinger 2001-2013
</metadata>
<g transform="translate(0.000000,436.000000) scale(0.100000,-0.100000)"
fill="#000000" stroke="none">
<path d="M1339 3248 c0 -35 -8 -159 -17 -276 l-17 -212 46 0 46 0 22 83 c48
173 94 240 186 267 22 6 129 14 238 17 l197 6 0 -816 c0 -899 2 -873 -61 -918
-31 -22 -141 -49 -201 -49 l-38 0 0 -45 0 -45 445 0 445 0 0 44 0 43 -68 6
c-141 14 -211 51 -232 126 -6 23 -10 333 -10 845 l0 809 203 -6 c211 -5 247
-11 304 -54 40 -29 97 -144 121 -240 17 -71 18 -73 49 -73 58 0 59 3 52 88 -4
42 -11 164 -15 270 l-7 192 -37 0 c-25 0 -43 -7 -56 -21 -44 -49 -39 -49 -754
-49 -715 0 -710 0 -754 49 -12 13 -31 21 -53 21 l-33 0 -1 -62z"/>
</g>
</svg>
